<svg id="Capa_1" enable-background="new 0 0 512 512" height="512" viewBox="0 0 512 512" width="512" xmlns="http://www.w3.org/2000/svg" xmlns:xlink="http://www.w3.org/1999/xlink"><linearGradient id="SVGID_1_" gradientUnits="userSpaceOnUse" x1="256" x2="256" y1="512" y2="0"><stop offset="0" stop-color="#addcff"/><stop offset=".5028" stop-color="#eaf6ff"/><stop offset="1" stop-color="#eaf6ff"/></linearGradient><linearGradient id="SVGID_2_" gradientUnits="userSpaceOnUse" x1="256" x2="256" y1="122.765" y2="389.235"><stop offset="0" stop-color="#5558ff"/><stop offset="1" stop-color="#00c0ff"/></linearGradient><g><circle cx="256" cy="256" fill="url(#SVGID_1_)" r="256"/><g><g><path d="m398.118 122.765h-35.529c-4.91 0-8.882 3.973-8.882 8.882 0 4.91 3.973 8.882 8.882 8.882h8.882v71.059h-230.942v-71.059h8.882c4.91 0 8.882-3.973 8.882-8.882s-3.973-8.882-8.882-8.882h-35.529c-4.91 0-8.882 3.973-8.882 8.882 0 4.91 3.973 8.882 8.882 8.882h8.882v79.941c0 4.973 3.908 8.882 8.882 8.882h21.14l6.395 12.79c1.599 3.021 4.619 4.975 7.994 4.975h8.882v26.647c0 4.91 3.973 8.882 8.882 8.882 4.91 0 8.882-3.973 8.882-8.882v-26.647h17.765v26.647c0 4.91 3.973 8.882 8.882 8.882h71.059c4.91 0 8.882-3.973 8.882-8.882v-26.647h17.765v26.647c0 4.91 3.973 8.882 8.882 8.882 4.91 0 8.882-3.973 8.882-8.882v-26.647h8.882c3.375 0 6.395-1.954 7.994-4.975l6.395-12.79h21.14c4.975 0 8.882-3.909 8.882-8.882v-79.941h8.882c4.91 0 8.882-3.973 8.882-8.882.005-4.909-3.968-8.882-8.877-8.882zm-110.735 235.677c-16.793 16.811-45.973 16.811-62.766 0-3.47-3.47-9.09-3.47-12.56 0-3.47 3.461-3.47 9.091 0 12.56 11.745 11.753 27.35 18.233 43.943 18.233s32.198-6.48 43.943-18.233c3.47-3.47 3.47-9.099 0-12.56-3.469-3.47-9.09-3.47-12.56 0zm-50.215-25.112c-3.479 3.461-3.479 9.091-.017 12.56 5.022 5.04 11.719 7.815 18.849 7.815s13.827-2.776 18.849-7.815c3.461-3.469 3.461-9.099-.017-12.56-3.47-3.452-9.09-3.452-12.56.017-3.331 3.348-9.212 3.348-12.543 0-3.461-3.478-9.082-3.478-12.561-.017zm27.714-24.036c0-4.906-3.977-8.883-8.882-8.883s-8.882 3.976-8.882 8.883c0 4.905 3.977 8.882 8.882 8.882s8.882-3.977 8.882-8.882zm70.122-146.09c-1.509-3.01-4.58-4.909-7.946-4.909h-142.117c-3.365 0-6.436 1.9-7.946 4.909l-15.31 30.62h188.628z" fill="url(#SVGID_2_)"/></g></g></g></svg>